<?xml version="1.0" encoding="utf-8"?>
<!-- Generator: Adobe Illustrator 25.4.1, SVG Export Plug-In . SVG Version: 6.00 Build 0)  -->
<svg version="1.1" id="Layer_1" xmlns="http://www.w3.org/2000/svg" xmlns:xlink="http://www.w3.org/1999/xlink" x="0px" y="0px"
	 viewBox="0 0 20 20" style="enable-background:new 0 0 20 20;" xml:space="preserve">
<style type="text/css">
	.st0{fill:#8E8D95;}
</style>
<path id="ic_highlight_off_24px" class="st0" d="M12.6,6L10,8.6L7.4,6L6,7.4L8.6,10L6,12.6L7.4,14l2.6-2.6l2.6,2.6l1.4-1.4L11.4,10
	L14,7.4L12.6,6z M10,0C4.5,0,0,4.5,0,10s4.5,10,10,10s10-4.5,10-10C20,4.5,15.5,0,10,0C10,0,10,0,10,0z M10,18c-4.4,0-8-3.6-8-8
	s3.6-8,8-8s8,3.6,8,8C18,14.4,14.4,18,10,18z"/>
</svg>
