<?xml version="1.0" encoding="utf-8"?>
<!-- Generator: Adobe Illustrator 25.4.1, SVG Export Plug-In . SVG Version: 6.00 Build 0)  -->
<svg version="1.1" id="Layer_1" xmlns="http://www.w3.org/2000/svg" xmlns:xlink="http://www.w3.org/1999/xlink" x="0px" y="0px"
	 viewBox="0 0 16.3 16.3" style="enable-background:new 0 0 16.3 16.3;" xml:space="preserve">
<style type="text/css">
	.st0{fill:#8E8D95;}
</style>
<path id="ic_control_point_24px" class="st0" d="M9,4.1H7.4v3.3H4.1V9h3.2v3.3H9V9h3.2V7.3H9V4.1z M8.2,0C3.7,0,0,3.6,0,8.1
	s3.6,8.2,8.1,8.2c4.5,0,8.2-3.6,8.2-8.1c0,0,0,0,0,0C16.3,3.7,12.7,0,8.2,0z M8.2,14.7c-3.6,0-6.5-2.9-6.6-6.5s2.9-6.5,6.5-6.6
	s6.5,2.9,6.6,6.5c0,0,0,0,0,0C14.7,11.8,11.8,14.7,8.2,14.7z"/>
</svg>
