<?xml version="1.0" encoding="utf-8"?>
<!-- Generator: Adobe Illustrator 25.4.1, SVG Export Plug-In . SVG Version: 6.00 Build 0)  -->
<svg version="1.1" id="Layer_1" xmlns="http://www.w3.org/2000/svg" xmlns:xlink="http://www.w3.org/1999/xlink" x="0px" y="0px"
	 viewBox="0 0 22 19" style="enable-background:new 0 0 22 19;" xml:space="preserve">
<style type="text/css">
	.st0{fill:#8E8D95;}
</style>
<path id="ic_visibility_24px" class="st0" d="M11,1.2c-4.9,0-9.2,3-11,7.5c2.4,6.1,9.2,9.1,15.3,6.7c3.1-1.2,5.5-3.6,6.7-6.7
	C20.2,4.2,15.9,1.2,11,1.2z M11,13.7c-2.8,0-5-2.2-5-5s2.2-5,5-5s5,2.2,5,5S13.8,13.7,11,13.7z M11,5.7c-1.7,0-3,1.3-3,3s1.3,3,3,3
	s3-1.3,3-3S12.7,5.7,11,5.7z"/>
</svg>
