<?xml version="1.0" standalone="no"?>
<!DOCTYPE svg PUBLIC "-//W3C//DTD SVG 20010904//EN"
 "http://www.w3.org/TR/2001/REC-SVG-20010904/DTD/svg10.dtd">
<svg version="1.0" xmlns="http://www.w3.org/2000/svg"
 width="1072.000000pt" height="1072.000000pt" viewBox="0 0 1072.000000 1072.000000"
 preserveAspectRatio="xMidYMid meet">
<metadata>
Created by potrace 1.14, written by Peter Selinger 2001-2017
</metadata>
<g transform="translate(0.000000,1072.000000) scale(0.100000,-0.100000)"
fill="#000000" stroke="none">
<path d="M1550 10156 l0 -565 1461 1 c803 0 1463 -3 1466 -6 3 -3 6 -565 6
-1248 l0 -1243 -1454 -2 c-800 0 -1460 -2 -1466 -2 -10 -1 -13 -121 -13 -564
l0 -562 1643 1 c903 1 1653 4 1667 8 14 3 36 8 50 11 45 8 154 47 205 72 163
82 300 215 387 373 47 86 89 213 93 278 1 17 5 35 8 38 3 4 6 342 7 752 0 419
4 748 9 752 5 3 551 5 1212 4 l1203 0 6 -30 c3 -16 4 -139 2 -274 -1 -135 -2
-249 -2 -255 0 -45 0 -783 0 -795 0 -8 1 -58 3 -110 1 -52 -1 -105 -5 -117 -4
-12 -4 -24 0 -27 5 -3 8 -701 3 -737 -1 -5 -514 -3 -1403 4 l-378 3 -1 -30 c0
-17 -2 -271 -5 -563 -3 -500 -2 -533 14 -534 9 0 292 -2 627 -5 1065 -8 1133
-9 1141 -17 6 -5 7 -121 4 -427 0 -8 1 -58 3 -110 1 -52 -1 -105 -5 -117 -4
-12 -4 -24 0 -27 4 -2 6 -197 4 -433 -1 -235 -2 -432 -2 -438 0 -75 0 -624 0
-635 0 -8 0 -28 1 -45 1 -16 1 -42 0 -57 l-1 -28 -1215 0 -1215 0 -1 718 c0
394 -2 742 -4 772 -12 199 -109 406 -259 555 -34 33 -77 72 -96 87 -47 36
-218 122 -265 133 -5 2 -28 8 -50 13 -22 6 -56 14 -75 18 -19 4 -772 8 -1672
8 l-1638 1 0 -561 c0 -441 3 -563 13 -566 6 -2 664 -3 1460 -3 928 1 1450 -2
1454 -8 8 -13 8 -2475 0 -2483 -3 -3 -663 -5 -1466 -5 l-1461 0 0 -565 0 -564
1638 0 c1392 1 1646 3 1697 15 33 8 69 17 81 19 47 9 175 70 245 115 62 42
154 124 207 186 58 68 153 264 166 341 2 16 5 29 6 29 9 0 13 83 17 325 3 157
7 287 8 289 2 2 64 3 137 2 162 -2 126 -2 351 1 103 2 187 0 187 -4 0 -4 7 -5
15 -2 24 10 115 10 115 1 0 -4 5 -5 11 -1 9 5 264 8 419 5 19 -1 81 0 138 2
56 1 102 -1 102 -5 0 -4 7 -5 15 -2 22 9 115 10 115 2 0 -4 7 -5 15 -2 22 9
175 10 175 2 0 -4 7 -5 15 -2 22 9 115 10 115 2 0 -4 7 -5 16 -1 22 8 334 9
334 1 0 -4 7 -5 15 -2 24 10 115 10 115 1 0 -4 5 -5 10 -2 6 4 95 8 198 10
103 2 198 6 212 9 14 3 39 9 55 11 68 12 133 36 233 87 88 45 112 63 201 148
120 116 198 257 228 415 10 53 10 6682 0 6715 -4 14 -9 36 -11 50 -10 68 -97
239 -151 296 -5 6 -31 33 -56 60 -128 138 -335 234 -559 260 -25 3 -658 6
-1407 6 l-1363 1 -1 241 c0 235 -3 299 -13 361 -10 59 -37 147 -61 201 -14 30
-25 59 -25 64 0 6 -4 10 -10 10 -5 0 -10 5 -10 11 0 14 -58 96 -103 147 -134
150 -296 242 -507 290 -14 3 -769 7 -1677 9 l-1653 3 0 -564z"/>
</g>
</svg>
