<?xml version="1.0" encoding="utf-8"?>
<!-- Generator: Adobe Illustrator 25.4.1, SVG Export Plug-In . SVG Version: 6.00 Build 0)  -->
<svg version="1.1" xmlns="http://www.w3.org/2000/svg" xmlns:xlink="http://www.w3.org/1999/xlink" x="0px" y="0px"
	 viewBox="0 0 239.1 70.4" style="enable-background:new 0 0 239.1 70.4;" xml:space="preserve">
<style type="text/css">
	.st0{fill:none;stroke:#FFFFFF;stroke-width:6;stroke-miterlimit:10;}
	.st1{fill:#FFFFFF;}
	.st2{font-family:'Gibson-SemiBoldItalic';}
	.st3{font-size:65px;}
	.st4{font-size:63px;}
	.st5{letter-spacing:-2;}
	.st6{letter-spacing:1;}
	.st7{letter-spacing:5;}
</style>
<g id="Layer_2">
</g>
<g id="Layer_1">
	<g>
		<path class="st0" d="M214.5,11.3h19.7c1.1,0,2,0.7,2,1.5v40c0,0.8-0.9,1.5-2,1.5h-19.7"/>
		<path class="st0" d="M192.4,3h19.7c1.1,0,2,0.9,2,2v18.5c0,1.1-0.9,2-2,2h-19.7"/>
		<line class="st0" x1="235.5" y1="32.9" x2="221.6" y2="32.8"/>
		<path class="st0" d="M192.4,40h19.7c1.1,0,2,0.9,2,2v18.5c0,1.1-0.9,2-2,2h-19.7"/>
	</g>
	<text transform="matrix(1 0 0 1 -4.196167e-05 56.9246)"><tspan x="0" y="0" class="st1 st2 st3">Br</tspan><tspan x="63.7" y="0" class="st1 st2 st4 st5">A</tspan><tspan x="102.7" y="0" class="st1 st2 st3 st6">C</tspan><tspan x="144.9" y="0" class="st1 st2 st3 st7">S</tspan></text>
</g>
</svg>
