<?xml version="1.0" encoding="utf-8"?>
<!-- Generator: Adobe Illustrator 25.4.1, SVG Export Plug-In . SVG Version: 6.00 Build 0)  -->
<svg version="1.1" id="Layer_1" xmlns="http://www.w3.org/2000/svg" xmlns:xlink="http://www.w3.org/1999/xlink" x="0px" y="0px"
	 viewBox="0 0 241.7 70.9" style="enable-background:new 0 0 241.7 70.9;" xml:space="preserve">
<style type="text/css">
	.st0{fill:none;stroke:#FFFFFF;stroke-width:7;stroke-miterlimit:10;}
	.st1{enable-background:new    ;}
	.st2{fill:#FFFFFF;}
</style>
<g id="Layer_2_00000178170159015527813010000002810785747779207358_">
</g>
<g id="Layer_1_00000018941968487107681630000010820720113523274139_">
	<g id="Layer_2_00000098187593702397986280000000996254309008932486_">
	</g>
	<g id="Layer_1_00000034771316568883857930000008174757968278656444_">
		<g>
			<path class="st0" d="M216.5,11.8h19.7c1.1,0,2,0.7,2,1.5v40c0,0.8-0.9,1.5-2,1.5h-19.7"/>
			<path class="st0" d="M194.4,3.5h19.7c1.1,0,2,0.9,2,2V24c0,1.1-0.9,2-2,2h-19.7"/>
			<line class="st0" x1="237.5" y1="33.4" x2="223.6" y2="33.3"/>
			<path class="st0" d="M194.4,40.5h19.7c1.1,0,2,0.9,2,2V61c0,1.1-0.9,2-2,2h-19.7"/>
		</g>
		<g class="st1">
			<path class="st2" d="M30.9,33.8L30.9,33.8c4.4,1.2,7.4,4.2,7.4,8.9c0,10.2-9,14.8-18.1,14.8H2.6l7.1-44.9h14.8
				c6.4,0,14.5,1.1,14.5,9.4C38.9,28.4,35.5,31.8,30.9,33.8z M21.3,38.1h-5.5L14,49.3h5.8c4.4,0,8.2-1.8,8.2-6.8
				C28,38.7,24.4,38.1,21.3,38.1z M22.7,20.5h-4.1L17,30.7h4.2c4,0,7.3-1.8,7.3-6.3C28.5,20.9,25.5,20.5,22.7,20.5z"/>
			<path class="st2" d="M64.6,35c-1-0.6-2.3-0.8-3.5-0.8c-4.9,0-6.9,4.9-7.5,9l-2.3,14.2H41.2l4.3-27.3c0.1-1,0.2-2,0.2-2.7
				c0-1.2-0.1-2-0.1-2h10.1c0,0,0.2,0.7,0.2,2.1c0,0.7-0.1,1.6-0.3,2.4c1.9-3,4.8-5.1,8.5-5.1c0.9,0,2.3,0.1,3.1,0.6l-2,9.6H64.6z"
				/>
		</g>
		<g class="st1">
			<path class="st2" d="M93.1,57.4l-1.6-8.7H76.7l-4.3,8.7H62.1l22.7-43.5H95l8.9,43.5H93.1z M87.8,25.3l-7.5,15.3h10.2L87.8,25.3z"
				/>
		</g>
		<g class="st1">
			<path class="st2" d="M132.1,21.2c-9.2,0-15.3,7.7-15.3,16.5c0,6.6,4.3,10.9,10.9,10.9c4.6,0,9-1.6,12.4-4.7l2.3,8.5
				c-4.5,4.2-10.6,6-16.7,6c-11.4,0-19.4-7-19.4-18.6c0-15.5,10.9-27.7,26.7-27.7c4.6,0,11.1,1.3,14.1,5.1l-4.6,8.8
				C140.6,22.9,135.3,21.2,132.1,21.2z"/>
		</g>
		<g class="st1">
			<path class="st2" d="M167.7,20.5c-3,0-6,1.3-6,4.6c0,6,17.4,4.5,17.4,16.6c0,12.1-11,16.5-18.8,16.5c-6,0-11.2-2.7-14.7-6.9
				l6.1-7.7c2.3,3.1,6.6,5.7,10.4,5.7c3.8,0,6.5-2,6.5-5.2c0-6.2-17.3-4.4-17.3-16.2c0-10.7,7.9-16,17.9-16c8.8,0,13.2,5.7,13.2,5.7
				l-5.4,7.5C174.5,22.2,170.6,20.5,167.7,20.5z"/>
		</g>
	</g>
</g>
</svg>
